# xmcd
#
# Track frame offsets:
#	150
#	23097
#	48377
#	65430
#	86530
#	107912
#	126105
#	152400
#	168705
#	189067
#	206117
#	223465
#	243895
#
# Disc length: 3491 seconds
#
# Revision: 4291231685
# Processed by: cddbd v1.5.2PL0 Copyright (c) Steve Scherf et al.
# Submitted via: EZCDAudioConverter 7.1.5.1
#
DISCID=b20da10d
DTITLE=박정현 - 박정현 - Op.4
DYEAR=2002
DGENRE=Pop
TTITLE0=Plastic Flower (상사병)
TTITLE1=꿈에
TTITLE2=Someone
TTITLE3=사랑이 올까요
TTITLE4=생활의 발견
TTITLE5=미운 오리
TTITLE6=미장원에서
TTITLE7=여자친구 참 예쁘네
TTITLE8=게으름뱅이
TTITLE9=이별하러 가는길
TTITLE10=떨쳐
TTITLE11=나의 어머니
TTITLE12=PUFF
EXTD=
EXTT0=
EXTT1=
EXTT2=
EXTT3=
EXTT4=
EXTT5=
EXTT6=
EXTT7=
EXTT8=
EXTT9=
EXTT10=
EXTT11=
EXTT12=
PLAYORDER=
